<?xml version="1.0" encoding="utf-8"?>
<!-- Generator: Adobe Illustrator 24.1.0, SVG Export Plug-In . SVG Version: 6.00 Build 0)  -->
<svg version="1.1" id="Layer_1" xmlns="http://www.w3.org/2000/svg" xmlns:xlink="http://www.w3.org/1999/xlink" x="0px" y="0px"
	 viewBox="0 0 100 100" style="enable-background:new 0 0 100 100;" xml:space="preserve">
<style type="text/css">
	.st0{fill:#004D9D;}
	.st1{fill:#FFFFFF;}
	.st2{fill:#C1272D;}
	.st3{fill:#991D26;}
	.st4{fill:#CCCCCC;}
	.st5{fill:#E6E6E6;}
	.st6{fill:#4284F2;}
	.st7{fill:#DB4E43;}
	.st8{fill:#F8BD23;}
	.st9{fill:#119D58;}
</style>
<g>
	<circle class="st0" cx="50.1" cy="51.7" r="15.3"/>
	<path class="st1" d="M57.7,61.8H42.3c-1.2,0-2.2-1-2.2-2.2V44.1c0-1.2,1-2.2,2.2-2.2h15.5c1.2,0,2.2,1,2.2,2.2v15.5
		C59.9,60.8,58.9,61.8,57.7,61.8z"/>
	<path class="st2" d="M57.7,41.9H42.3c-1.2,0-2.2,1-2.2,2.2v3.5h19.8v-3.5C59.9,42.9,58.9,41.9,57.7,41.9z"/>
	<circle class="st3" cx="44.1" cy="44.8" r="1.4"/>
	<circle class="st3" cx="55.8" cy="44.8" r="1.4"/>
	<path class="st4" d="M44.1,45.2L44.1,45.2c-0.5,0-0.8-0.4-0.8-0.8V41c0-0.5,0.4-0.8,0.8-0.8l0,0c0.5,0,0.8,0.4,0.8,0.8v3.4
		C45,44.8,44.6,45.2,44.1,45.2z"/>
	<path class="st4" d="M55.8,45.2L55.8,45.2c-0.5,0-0.8-0.4-0.8-0.8V41c0-0.5,0.4-0.8,0.8-0.8l0,0c0.5,0,0.8,0.4,0.8,0.8v3.4
		C56.6,44.8,56.3,45.2,55.8,45.2z"/>
	<rect x="42.8" y="48.9" class="st5" width="2.9" height="2.9"/>
	<rect x="46.6" y="48.9" class="st5" width="2.9" height="2.9"/>
	<rect x="50.4" y="48.9" class="st5" width="2.9" height="2.9"/>
	<rect x="54.2" y="48.9" class="st5" width="2.9" height="2.9"/>
	<rect x="42.8" y="52.6" class="st5" width="2.9" height="2.9"/>
	<rect x="46.6" y="52.6" class="st2" width="2.9" height="2.9"/>
	<rect x="50.4" y="52.6" class="st5" width="2.9" height="2.9"/>
	<rect x="54.2" y="52.6" class="st5" width="2.9" height="2.9"/>
	<rect x="42.8" y="56.3" class="st5" width="2.9" height="2.9"/>
	<rect x="46.6" y="56.3" class="st5" width="2.9" height="2.9"/>
	<rect x="50.4" y="56.3" class="st5" width="2.9" height="2.9"/>
	<rect x="54.2" y="56.3" class="st5" width="2.9" height="2.9"/>
	<circle class="st6" cx="26.7" cy="44.8" r="6.7"/>
	<circle class="st7" cx="50.1" cy="27.8" r="6.7"/>
	<circle class="st8" cx="73.3" cy="44.8" r="6.7"/>
	<circle class="st9" cx="63.9" cy="72.2" r="6.7"/>
	<circle class="st8" cx="36.2" cy="72.2" r="6.7"/>
</g>
</svg>
